<?xml version="1.0" encoding="UTF-8"?><svg id="Layer_2" xmlns="http://www.w3.org/2000/svg" viewBox="0 0 1371 1104.17"><defs><style>.cls-1{fill:#a46bff;}</style></defs><g id="Layer_1-2"><path class="cls-1" d="m0,628v-4c3.24-1.9,6.26-4.66,9.76-5.53,11.33-2.84,22.83-5,34.27-7.42.66-.25,1.31-.51,1.97-.76,5-.74,10.01-1.48,15.01-2.21.44.57.87,1.14,1.31,1.71.56-.6,1.12-1.2,1.69-1.8,15.62-2.67,30.9-7.59,47-6.94,2.94,2.85,9.53,2.8,13.01-.08,1.99-.31,3.99-.62,5.98-.93,2-.02,4-.04,6-.06,2.34-.3,4.68-.61,7.02-.91,1.99-.05,3.98-.11,5.98-.16,2.67-.28,5.34-.56,8.01-.84.43.57.87,1.15,1.3,1.72.56-.6,1.13-1.2,1.69-1.8,2.66-.42,5.33-.85,7.99-1.27,1.36-.52,2.73-1.04,4.09-1.56,2.23-.82,5.17-1.01,6.55-2.57,5.5-6.23,11.81-10.41,20.36-10.52.43.57.87,1.15,1.3,1.72.56-.6,1.13-1.2,1.69-1.81,2.67-.65,5.33-1.3,8-1.95,1-.05,2-.11,2.99-.16,3.35-.92,6.7-1.85,10.04-2.77,1.35-.35,2.69-.7,4.04-1.05,8.2-2.33,16.41-4.64,24.6-7,13.79-3.97,27.54-8.13,41.39-11.9,5.53-1.51,11.29-2.19,16.94-3.24l1.98-.96c5.34-.68,10.68-1.37,16.02-2.05,1.04-.61,2.09-1.23,3.13-1.84,3.62-.02,7.25-.03,10.87-.05,2.82,2.85,9.23,2.84,12-.03,1.53-1.48,3.61-2.68,4.5-4.48,2.47-5,6.31-7.71,11.66-8.83,4.98-1.04,9.9-2.42,14.85-3.65.67,0,1.35-.02,2.02-.03.4-.14.79-.27,1.19-.41-.34-.2-.67-.4-1.01-.6-.08-.67-.15-1.33-.23-2-.3-2.33-.61-4.67-.91-7,2.73-1.39,2.72-2.72-.08-4,0-2,0-4,0-6,.6-.57,1.2-1.13,1.8-1.7-.58-.43-1.15-.87-1.73-1.3.03-.97.06-1.95.08-2.92,3.45-5.6,7.03-11.07,13.94-12.94.64-.04,1.28-.07,1.92-.11.93-.43,1.86-.86,2.79-1.29-1.25-1.27-2.49-2.54-3.74-3.81h0c-1-1-2.01-2.01-3.01-3.03-2.75-2.88-5.61-5.67-8.22-8.67-8.23-9.45-15.2-19.44-17.32-32.37-.94-5.72-3.12-11.77-6.48-16.41-4.01-5.53-9.9-9.69-14.97-14.44-6.99-6.55-15.01-12.25-18.08-22.02.02-1.33.03-2.67.05-4,1.54-4.03.24-6.81-3.29-9.29-3.64-2.56-7.01-5.61-10.15-8.78-10.73-10.82-18.91-23.3-25.07-37.29-3.74-8.48-9.46-15.75-16.87-21.72-7.83-6.31-15.12-13.3-22.64-19.99-.3-.3-.61-.6-.91-.91-5.73-5.89-11.63-11.63-17.06-17.79-1.35-1.53-2.17-4.88-1.4-6.56.92-2.01,3.67-3.39,5.89-4.52,1.18-.6,2.92-.11,4.41-.11.7.62,1.4,1.24,2.1,1.86,11.19,4.04,19.7,12.07,28.71,19.35,14.71,11.88,29.17,24.08,44.19,35.56,14.86,11.37,30.35,21.9,45.41,33.01,18.16,13.39,36.44,26.65,54.15,40.62,17.07,13.46,33.84,27.34,50.09,41.77,21.4,19,43.42,37.05,68.13,51.64,18.67,11.02,38.3,19.81,59.2,25.58,7.95,2.19,16.08,3.74,24.12,5.58,1.38.3,2.77.59,4.15.89,2.28,0,4.57,0,6.85.01,2.66.34,5.33.68,7.99,1.02,4.34.01,8.68.02,13.02.04,3.98,0,7.97,0,11.95,0,3.68-.08,7.36-.17,11.03-.25,1.66-.26,3.33-.52,4.99-.79,4.67-.73,9.34-1.45,14.02-2.18,1.05-.55,2.1-1.11,3.14-1.66,4.92-1.41,10.04-2.35,14.72-4.35,7.77-3.32,13.67-8.28,12.17-18.15-.91-5.96,2.07-10.58,6.86-13.38,5.07-2.95,10.67-5.08,16.2-7.1,2.95-1.07,5.22-2,4.93-5.67-.88-10.77,5.32-17.26,14.16-21.2,13.88-6.19,28.93-6.47,43.82-7.12,2.89,2.76,7.29,2.71,9.99-.1,2.53-3.19-.43-4.73-2.08-6.53-11.28-12.33-22.11-24.95-26.93-41.48-.02-.67-.04-1.33-.05-2-.57-8.06-2.51-15.51-7.79-22.03-4.89-6.04-9.32-12.46-13.65-18.92-3.81-5.7-5.14-11.98-3.79-18.92,1.1-5.68.95-11.34-4.6-15.17-.71-.96-1.42-1.91-2.14-2.87-1.08-1.25-1.97-2.76-3.27-3.71-9.11-6.65-18.41-13.04-27.43-19.8-4.76-3.57-9.87-7.1-13.46-11.71-8.34-10.72-15.91-22.05-23.68-33.21-11.75-16.86-23.42-33.79-35.12-50.69l-2.11-2.93c-9.77-8.42-19.51-16.88-29.32-25.26-16.52-14.12-33.66-27.58-49.44-42.48-11.54-10.89-20.81-24.14-32.01-35.43-12.97-13.07-26.8-25.32-40.59-37.55-3.74-3.32-8.39-6.51-13.12-7.59-5.6-1.27-10.42-3.45-14.57-6.95-7.35-6.2-14.87-12.45-16.89-22.69,1.01-2.36,2.02-4.72,3.04-7.08,4.33,0,8.67,0,13,0,2.33.67,4.67,1.33,7,2,7.34,2.58,14.98,4.53,21.96,7.87,18.68,8.93,37.19,18.23,55.55,27.8,18.37,9.57,36.46,19.68,54.7,29.51,25.89,13.94,51.77,27.9,77.71,41.74,19.43,10.36,39.03,20.4,58.42,30.85,17.54,9.46,34.92,19.22,52.32,28.94,15.76,8.8,31.66,17.38,47.11,26.69,21.87,13.18,43.7,26.46,64.96,40.57,24.06,15.98,48.01,32.22,71.04,49.64,29.25,22.13,57.53,45.55,86.23,68.41,1.04,1.32,2.07,2.63,3.11,3.95,1.96,1.68,3.93,3.37,5.89,5.05.64.66,1.28,1.33,1.92,1.99,6.99,9.47,14.57,18.57,20.84,28.5,9.33,14.77,14.12,31.39,17.21,48.5l-1.47.82c.52.38,1.05.77,1.57,1.15.31.92.8,1.81.9,2.75.93,8.88,1.38,17.84,2.76,26.65,2.42,15.41,10.55,28.43,18.89,41.17,1.51,2.31,5.45,4.26,8.26,4.24,4.84-.03,9.8-1.34,14.49-2.82,10.87-3.43,21.52-7.57,32.43-10.87,7.25-2.19,14.8-3.43,22.21-5.1,1-.03,2-.05,3-.08,4-.27,8.01-.54,12.01-.81,2.94,3.63,16.78,4.31,19.75.96.19-.22.16-.63.24-.95,3,.27,6.01.53,9.01.8,1,.03,2,.06,3,.09,3.06.67,6.16,1.19,9.17,2.04,12.3,3.46,24.89,6.69,33.81,16.62,4.13,4.59,7.31,10.19,10.16,15.73,5.71,11.1,11.72,21.36,24.78,25.6,7.61,2.47,14.66,6.65,21.97,10.06.7,1.32,1.41,2.63,2.11,3.95v6c-7.38,4.94-14.86,9.74-22.11,14.85-5.66,3.99-11.66,7.79-16.39,12.75-4.85,5.09-8.25,11.56-12.45,17.3-17.4,23.86-34.65,47.83-52.39,71.43-6.55,8.71-14.33,16.5-21.55,24.71-.71.96-1.43,1.91-2.14,2.87-1.08,1.26-2.03,2.65-3.24,3.76-9.45,8.55-19.24,16.75-28.38,25.62-19.26,18.7-43.25,29.31-67.21,39.99-13.76,6.14-27.61,12.14-41.65,17.6-11.59,4.51-19.25,12.3-24,23.66-3.06,7.33-6.57,14.64-13.18,19.63-17.48,13.21-34.81,26.63-52.64,39.36-13.08,9.34-28.48,13.84-43.7,18.47-.66.64-1.32,1.27-1.98,1.91-2.57.52-5.35.56-7.67,1.63-12.29,5.66-24.92,10.79-36.57,17.59-13.32,7.78-27.89,11.4-42.48,14.64-17.9,3.97-36.17,6.26-54.27,9.28-.42-.54-.84-1.08-1.26-1.62-.58.81-1.17,1.62-1.75,2.43-1.69.04-3.37.09-5.06.13-2.31.65-4.63,1.29-6.94,1.94-6.67.47-13.33.95-20,1.42-.66.24-1.32.48-1.97.73-7.67.97-15.35,1.94-23.02,2.91-.99.03-1.98.07-2.97.1-9.68,1.33-19.36,2.66-29.04,4-2,0-3.99,0-5.99,0-1,.28-2,.55-3,.83-.37-4.95-3.58-4.61-7.17-4.03-7.07,1.14-14.18,2.02-21.25,3.14-4.57.73-9.21,1.38-13.62,2.7-1.9.57-3.32,2.76-4.96,4.22-1,.04-1.99.07-2.99.11-.67-4.03-3.72-3.33-6.21-2.75-3.53.82-6.87,2.65-10.42,3.22-7.43,1.18-15.08,1.23-22.41,2.79-14.98,3.19-29.76,7.27-44.81,10.25-17.29,3.43-34.43,7.65-51.57,11.77-18.29,4.4-36.51,9.08-54.75,13.68-7.99,2.01-16.03,3.9-23.9,6.34-1.93.6-3.25,3.17-4.85,4.84-.7.27-1.39.54-2.09.8-.85-3.97-3.43-3.3-6.13-2.27-1.85.71-3.63,1.67-5.54,2.14-10.05,2.47-20.18,4.63-30.18,7.26-9.92,2.61-19.73,5.64-29.59,8.5-3.76,1.09-7.47,2.35-11.26,3.32-10.85,2.78-21.75,5.34-32.58,8.19-9.27,2.45-18.46,5.21-27.69,7.79-14.14,3.94-28.3,7.82-42.43,11.78-8.41,2.35-16.88,4.58-25.19,7.25-8.29,2.67-16.56,5.5-24.58,8.87-9.73,4.09-19.13,8.98-28.82,13.16-2.49,1.07-5.57.76-9.06,1.16,5.73-13.62,16.19-21.43,26.41-29.14,7.6-5.73,16.03-10.44,24.36-15.12,14.15-7.95,28.56-15.44,42.78-23.26,6.8-3.74,13.53-7.63,20.1-11.76,7.7-4.85,15.31-9.85,22.71-15.14,7.65-5.47,15.43-10.89,22.37-17.2,5.94-5.4,10.48-12.29,16.18-17.99,3.42-3.42,7.61-6.26,11.88-8.6,12.56-6.88,25.23-13.6,38.07-19.95,7.07-3.5,14.57-6.11,21.86-9.15,6.97-2.91,13.71-6.62,20.93-8.62,16.44-4.55,31.98-10.54,45.58-21.22,9.3-7.3,19.83-12.8,26.41-23.57,3.15-5.15,9.03-10.22,14.69-11.87,9.47-2.75,18.54-5.64,26.87-11.03,3.75-2.43,5.64-5.43,4.73-9.51-1.66-7.47,2.12-13.09,5.52-18.95,1.57-2.7,3.36-5.37,4.29-8.29.41-1.29-1.08-3.19-1.71-4.81-.25-3.33-.5-6.66-.75-10,1.15-.66,2.29-1.32,3.44-1.98-1.22-1.01-2.43-2.01-3.65-3.02.01-4,.03-8,.04-12,1.78-1,4.2-1.58,5.23-3.09,3.78-5.59,9.09-9.09,15.06-11.5,7.94-3.2,14.44-7.83,17.81-15.9,1.16-2.78,2.56-6.21-2.21-7.52.03-3.97-.04-7.94.1-11.91.14-3.81,1.35-7.14,5-9.06,2.79.14,4.12-1.18,3.97-3.97,1.29-1.88,2.39-3.94,3.92-5.6,8.64-9.42,19.91-13.78,32.07-16.36.62.55,1.25,1.1,1.87,1.65.38-.81.75-1.63,1.13-2.44,5.09-.85,1.45-3.3.95-5.17-.7-.68-1.4-1.37-2.1-2.05-.32-.07-.67-.1-.96-.23-12.55-5.33-25.2-10.42-37.6-16.08-9.26-4.22-18.2-9.16-27.28-13.78-1.35-.99-2.71-1.97-4.06-2.96-4.24-1.37-8.4-3.04-12.73-4.04-8.03-1.87-16.14-3.34-24.22-4.98-1.36-.31-2.72-.63-4.08-.94-14.97-1.68-29.94-3.36-44.91-5.04-.67-.02-1.33-.03-2-.05-16.71-.65-33.42-1.7-50.13-1.83-18.9-.15-37.81.37-56.71.9-15.06.42-30.11,1.29-45.17,1.96l-3,.02c-17.33.66-34.67,1.33-52,1.99-.79-.66-1.57-1.88-2.38-1.9-6.74-.15-13.49-.15-20.23,0-.81.02-1.6,1.23-2.39,1.88l-55-1.98c-1.33,0-2.67-.01-4-.02-2.33-.03-4.67-.05-7-.08-2.64-3.49-5.84-1.92-8.97-.98-3.33,0-6.68.26-9.99-.03-14.35-1.22-28.7-2.6-43.04-3.92-1.96-3.05-3.96-2.97-6-.08l-16.99-.93c-1.32-.63-2.65-1.27-3.97-1.9-.7.62-1.4,1.24-2.1,1.86-5.65-.32-11.29-.63-16.94-.95-.96-.66-1.91-1.88-2.89-1.9-7.73-.16-15.46-.16-23.19,0-.99.02-1.95,1.21-2.92,1.85-5.33,0-10.67-.02-16-.03-1.94-5.87-6.04-1.34-9.08-1.89-10.37.02-20.26-2.56-29.61-6.63-3.91-1.71-6.9-5.54-10.31-8.4Z"/></g></svg>